<?xml version="1.0" encoding="utf-8"?>
<!-- Generator: Adobe Illustrator 27.9.6, SVG Export Plug-In . SVG Version: 9.03 Build 54986)  -->
<svg version="1.1" id="Layer_1" xmlns="http://www.w3.org/2000/svg" xmlns:xlink="http://www.w3.org/1999/xlink" x="0px" y="0px"
	 viewBox="0 0 2254.71 850.39" style="enable-background:new 0 0 2254.71 850.39;" xml:space="preserve">
<style type="text/css">
	.st0{fill:#FFFFFF;}
	.st1{fill:none;}
</style>
<g>
	<g>
		<path class="st0" d="M871.85,404.95H649.13V347.1l23.14-23.14H851.6v-40.5H698.01c-2.68,0-5.31,0.53-7.75,1.54
			s-4.67,2.49-6.57,4.39l-69.13,69.13c-1.9,1.9-3.38,4.14-4.39,6.57c-1.01,2.43-1.54,5.06-1.54,7.75v52.36
			c0,5.59,2.27,10.65,5.93,14.32c3.66,3.66,8.73,5.93,14.32,5.93H851.6v57.85l-23.14,23.14H608.63v40.49h194.09
			c2.68,0,5.31-0.53,7.75-1.54c2.43-1.01,4.67-2.49,6.57-4.39l69.13-69.13c1.9-1.9,3.38-4.14,4.39-6.57
			c1.01-2.43,1.54-5.06,1.54-7.75V425.2c0-5.59-2.27-10.65-5.93-14.32S877.44,404.95,871.85,404.95z"/>
		<path class="st0" d="M487.15,526.43V372.84c0-2.68-0.53-5.31-1.54-7.75s-2.49-4.67-4.39-6.57l-69.13-69.13
			c-1.9-1.9-4.14-3.38-6.57-4.39s-5.06-1.54-7.75-1.54h-113.1v40.5h138.84l23.14,23.14v179.33H284.67v40.49h283.46v-40.49
			L487.15,526.43z"/>
		<path class="st0" d="M1320.18,526.43l-23.14-23.14V283.46h-40.49v194.09c0,2.68,0.53,5.31,1.54,7.75
			c1.01,2.43,2.49,4.67,4.39,6.57l69.13,69.13c1.9,1.9,4.14,3.38,6.57,4.39c2.43,1.01,5.06,1.54,7.75,1.54h194.09v-40.49H1320.18z"
			/>
		<path class="st0" d="M1149.35,378.74l-28.63-28.63L973.09,497.74V283.46h-40.49v194.09c0,2.68,0.53,5.31,1.54,7.75
			s2.49,4.67,4.39,6.57l69.13,69.13c1.9,1.9,4.14,3.38,6.57,4.39c2.43,1.01,5.06,1.54,7.75,1.54h194.09v-40.49h-214.4
			L1149.35,378.74z"/>
	</g>
	<g>
		<path class="st0" d="M1621,283.46h5.77v5.77H1621V283.46z M1621.38,293.08h5v32.06h-5V293.08z"/>
		<path class="st0" d="M1636.13,293.08h3.98v2.89h1.09l3.33-2.89h14.75l6.6,6.6v25.45h-4.94l0.06-23.46l-3.91-3.98h-11.16l-4.87,4.1
			l0.06,23.34h-5V293.08z"/>
		<path class="st0" d="M1674.73,320.59h20.77l2.69-2.76v-3.97l-2.69-2.76h-15.64l-5.45-5.26v-7.37l5.39-5.39h21.61l0.13,4.62h-19.43
			l-2.76,2.63v3.53l2.69,2.69h15.71l5.32,5.39l0.06,7.82l-5.32,5.39h-22.95L1674.73,320.59z"/>
		<path class="st0" d="M1713.9,321.29v-23.66h-6.41l-0.06-4.55h6.41v-8.33h5v8.33h11.86l-0.06,4.55h-11.86v21.67l1.22,1.22h10.96
			v4.62h-13.21L1713.9,321.29z"/>
		<path class="st0" d="M1737.17,283.46h5.77v5.77h-5.77V283.46z M1737.55,293.08h5v32.06h-5V293.08z"/>
		<path class="st0" d="M1754.93,321.29v-23.66h-6.41l-0.06-4.55h6.41v-8.33h5v8.33h11.86l-0.06,4.55h-11.86v21.67l1.22,1.22h10.96
			v4.62h-13.21L1754.93,321.29z"/>
		<path class="st0" d="M1778.33,318.47v-25.39h4.87v23.53l3.98,3.91h10.07l4.74-4.1v-23.34h5v32.06h-3.98l-0.06-2.89h-0.96
			l-3.4,2.89h-13.66L1778.33,318.47z"/>
		<path class="st0" d="M1819.36,321.29v-23.66h-6.41l-0.06-4.55h6.41v-8.33h5v8.33h11.86l-0.06,4.55h-11.86v21.67l1.22,1.22h10.96
			v4.62h-13.21L1819.36,321.29z"/>
		<path class="st0" d="M1842.44,317.96v-17.63l7.12-7.24h17.37l7.24,7.18v17.69l-7.24,7.18h-17.37L1842.44,317.96z M1864.75,320.52
			l4.49-4.49v-13.85l-4.49-4.49h-12.95l-4.49,4.42v13.91l4.55,4.49H1864.75z"/>
		<path class="st0" d="M1620.74,401.18h20.77l2.69-2.76v-3.97l-2.69-2.76h-15.64l-5.45-5.26v-7.37l5.39-5.39h21.61l0.13,4.62h-19.43
			l-2.76,2.63v3.53l2.69,2.69h15.71l5.32,5.39l0.06,7.82l-5.32,5.39h-22.95L1620.74,401.18z"/>
		<path class="st0" d="M1657.03,399.07v-25.39h4.87v23.53l3.98,3.91h10.07l4.74-4.1v-23.34h5v32.06h-3.98l-0.06-2.89h-0.96
			l-3.4,2.89h-13.66L1657.03,399.07z"/>
		<path class="st0" d="M1695.43,373.68h3.98l0.06,3.4h1.09l4.04-3.4h14.1l7.12,7.18v17.69l-7.12,7.18h-18.27v12.82h-5V373.68z
			 M1716.4,401.12l4.49-4.49v-13.85l-4.49-4.49h-10.45l-5.58,4.68v18.14H1716.4z"/>
		<path class="st0" d="M1734.35,398.55v-17.63l7.12-7.24h16.67l7.18,7.18v11.54h-26.09v4.23l4.49,4.49h19.23v4.62h-21.48
			L1734.35,398.55z M1760.44,387.78l-0.06-5l-4.49-4.49h-12.18l-4.49,4.49l0.06,5H1760.44z"/>
		<path class="st0" d="M1773.71,373.68h3.98l0.06,2.82h1.03l3.21-2.82h13.08v4.62h-11.6l-4.81,3.98l0.06,23.46h-5V373.68z"/>
		<path class="st0" d="M1799.17,364.06h5.77v5.77h-5.77V364.06z M1799.55,373.68h5v32.06h-5V373.68z"/>
		<path class="st0" d="M1813.72,398.55v-17.63l7.12-7.24h17.37l7.24,7.18v17.69l-7.24,7.18h-17.37L1813.72,398.55z M1836.03,401.12
			l4.49-4.49v-13.85l-4.49-4.49h-12.95l-4.49,4.42v13.91l4.55,4.49H1836.03z"/>
		<path class="st0" d="M1854.62,373.68h3.98l0.06,2.82h1.03l3.21-2.82h13.08v4.62h-11.6l-4.81,3.98l0.06,23.46h-5V373.68z"/>
		<path class="st0" d="M1900.4,398.55v-17.63l7.12-7.24h18.27v-12.82h4.94v44.88h-3.97v-3.46h-1.09l-4.04,3.46h-14.1L1900.4,398.55z
			 M1920.27,401.12l5.51-4.68v-18.14h-16.03l-4.49,4.42v13.91l4.55,4.49H1920.27z"/>
		<path class="st0" d="M1940.28,398.55v-17.63l7.12-7.24h16.67l7.18,7.18v11.54h-26.09v4.23l4.49,4.49h19.23v4.62h-21.48
			L1940.28,398.55z M1966.37,387.78l-0.06-5l-4.49-4.49h-12.18l-4.49,4.49l0.06,5H1966.37z"/>
		<path class="st0" d="M1620.81,479.15v-17.63l7.12-7.24h16.67l7.18,7.18V473h-26.09v4.23l4.49,4.49h19.23v4.62h-21.48
			L1620.81,479.15z M1646.9,468.38l-0.06-5l-4.49-4.49h-12.18l-4.49,4.49l0.06,5H1646.9z"/>
		<path class="st0" d="M1660.17,454.28h3.98v2.89h1.09l3.33-2.89h14.75l6.6,6.6v25.45h-4.94l0.06-23.46l-3.91-3.98h-11.16l-4.87,4.1
			l0.06,23.34h-5V454.28z"/>
		<path class="st0" d="M1701.2,494.6h20.58l2.44-2.5v-8.4h-0.96l-3.14,2.63h-14.17l-7.12-7.18v-17.63l7.12-7.24h23.21v39.69
			l-5.19,5.19h-22.82L1701.2,494.6z M1718.71,481.72l5.58-4.68l-0.06-18.14h-16.03l-4.49,4.42v13.91l4.55,4.49H1718.71z"/>
		<path class="st0" d="M1738.39,479.15v-17.63l7.12-7.24h16.67l7.18,7.18V473h-26.09v4.23l4.49,4.49h19.23v4.62h-21.48
			L1738.39,479.15z M1764.48,468.38l-0.06-5l-4.49-4.49h-12.18l-4.49,4.49l0.06,5H1764.48z"/>
		<path class="st0" d="M1777.75,454.28h3.98v2.89h1.09l3.33-2.89h14.75l6.6,6.6v25.45h-4.94l0.06-23.46l-3.91-3.98h-11.16l-4.87,4.1
			l0.06,23.34h-5V454.28z"/>
		<path class="st0" d="M1817.37,441.45h4.87v15.26h1.09l2.82-2.44h14.3l6.6,6.6v25.45h-4.94l0.06-23.46l-4.04-3.98h-10.64
			l-5.26,4.42v23.02h-4.87V441.45z"/>
		<path class="st0" d="M1855.01,480.95l-0.06-8.59l5.96-5.9h18.72l0.06-4.04l-3.46-3.59h-17.18v-4.55h19.3l6.22,6.22v25.84h-3.91
			V483h-1.03l-4.04,3.33h-15.26L1855.01,480.95z M1874.11,481.78l5.51-4.68v-6.03h-16.54l-3.21,3.14l0.06,4.81l2.63,2.76H1874.11z"
			/>
		<path class="st0" d="M1894.05,454.28h3.98l0.06,2.82h1.03l3.21-2.82h13.08v4.62h-11.6l-4.81,3.98l0.06,23.46h-5V454.28z"/>
		<path class="st0" d="M1919.5,444.66h5.77v5.77h-5.77V444.66z M1919.89,454.28h5v32.06h-5V454.28z"/>
		<path class="st0" d="M1933.1,480.95l-0.06-8.59l5.96-5.9h18.72l0.06-4.04l-3.46-3.59h-17.18v-4.55h19.3l6.22,6.22v25.84h-3.91V483
			h-1.03l-4.04,3.33h-15.26L1933.1,480.95z M1952.2,481.78l5.51-4.68v-6.03h-16.54l-3.21,3.14l0.06,4.81l2.63,2.76H1952.2z"/>
		<path class="st0" d="M1620.81,559.75v-17.63l7.12-7.24h18.27v-12.82h4.94v44.88h-3.97v-3.46h-1.09l-4.04,3.46h-14.1
			L1620.81,559.75z M1640.68,562.31l5.51-4.68v-18.14h-16.03l-4.49,4.42v13.91l4.55,4.49H1640.68z"/>
		<path class="st0" d="M1660.69,559.75v-17.63l7.12-7.24h16.67l7.18,7.18v11.54h-26.09v4.23l4.49,4.49h19.23v4.62h-21.48
			L1660.69,559.75z M1686.78,548.98l-0.06-5l-4.49-4.49h-12.18l-4.49,4.49l0.06,5H1686.78z"/>
		<path class="st0" d="M1722.87,526.67h-6.15l-0.13-4.62h11.16v44.88h-4.94L1722.87,526.67z"/>
		<path class="st0" d="M1737.49,525.26h5.77v5.77h-5.77V525.26z M1737.88,534.87h5v32.06h-5V534.87z"/>
		<path class="st0" d="M1751.98,562.38h20.77l2.69-2.76v-3.97l-2.69-2.76h-15.64l-5.45-5.26v-7.37l5.39-5.39h21.61l0.13,4.62h-19.43
			l-2.76,2.63v3.53l2.69,2.69H1775l5.32,5.39l0.06,7.82l-5.32,5.39h-22.95L1751.98,562.38z"/>
		<path class="st0" d="M1788.91,522.05h4.87v15.52h1.09l3.08-2.69h14.11l7.18,7.18l-0.06,17.69l-7.12,7.18h-23.14V522.05z
			 M1809.81,562.31l4.55-4.49l-0.06-13.85l-4.49-4.49h-10.45l-5.58,4.68l0.06,18.14H1809.81z"/>
		<path class="st0" d="M1827.82,559.75v-17.63l7.12-7.24h17.37l7.24,7.18v17.69l-7.24,7.18h-17.37L1827.82,559.75z M1850.14,562.31
			l4.49-4.49v-13.85l-4.49-4.49h-12.95l-4.49,4.42v13.91l4.55,4.49H1850.14z"/>
		<path class="st0" d="M1867.19,561.54l-0.06-8.59l5.96-5.9h18.72l0.06-4.04l-3.46-3.59h-17.18v-4.55h19.3l6.22,6.22v25.84h-3.91
			v-3.33h-1.03l-4.04,3.33h-15.26L1867.19,561.54z M1886.29,562.38l5.51-4.68v-6.03h-16.54l-3.21,3.14l0.06,4.81l2.63,2.76H1886.29z
			"/>
	</g>
</g>
<rect x="1.21" y="0" class="st1" width="2253.5" height="850.39"/>
</svg>
